<?xml version="1.0" standalone="no"?>
<!DOCTYPE svg PUBLIC "-//W3C//DTD SVG 20010904//EN"
 "http://www.w3.org/TR/2001/REC-SVG-20010904/DTD/svg10.dtd">
<svg version="1.0" xmlns="http://www.w3.org/2000/svg"
 width="300.000000pt" height="300.000000pt" viewBox="0 0 300.000000 300.000000"
 preserveAspectRatio="xMidYMid meet">

<g transform="translate(0.000000,300.000000) scale(0.100000,-0.100000)"
fill="#ffd100" stroke="none">
<path d="M1124 2188 c-221 -222 -410 -419 -422 -438 -104 -177 -38 -402 146
-492 61 -30 75 -33 157 -33 66 1 99 5 123 18 17 10 32 16 32 14 0 -2 -60 -63
-132 -135 l-133 -132 247 -247 248 -248 410 410 c478 477 465 460 465 620 0
89 -3 106 -27 150 -33 63 -114 140 -176 167 -69 31 -172 35 -246 10 l-58 -20
133 134 134 134 -245 245 c-135 135 -247 245 -250 245 -3 0 -186 -181 -406
-402z m822 -579 c-37 -29 -20 -47 24 -24 36 19 60 14 60 -12 0 -21 -38 -63
-58 -63 -9 0 -5 8 12 21 26 20 35 49 16 49 -6 0 -22 -7 -35 -16 -52 -34 -77
17 -28 55 14 12 28 19 31 16 3 -2 -7 -14 -22 -26z m-84 -81 c-19 -19 -14 -63
8 -83 11 -10 20 -23 20 -29 0 -5 -18 8 -40 29 -37 36 -54 65 -30 50 6 -3 10
-1 10 6 0 15 31 51 38 44 3 -3 0 -11 -6 -17z m-60 -115 c21 -19 23 -52 6 -75
-26 -33 -78 -23 -97 18 -25 55 45 99 91 57z m-132 -72 c0 -5 -7 -11 -15 -15
-22 -8 -18 -29 8 -55 23 -21 57 -21 57 0 0 5 5 9 10 9 18 0 10 -19 -15 -36
-25 -16 -27 -16 -64 14 -29 23 -41 28 -50 19 -8 -8 -11 -8 -11 0 0 7 5 15 11
19 8 4 8 9 0 17 -17 17 -13 31 5 17 12 -11 18 -10 32 3 18 19 32 22 32 8z
m-64 -142 l31 -30 -26 -30 c-44 -50 -89 -29 -60 29 7 15 15 30 17 35 9 18 -28
5 -42 -15 -9 -12 -18 -19 -21 -16 -9 9 35 58 53 58 9 0 30 -14 48 -31z m-108
-81 c9 -9 5 -19 -20 -45 -28 -29 -29 -33 -13 -39 13 -5 25 1 43 21 18 21 23
24 21 10 -2 -10 -16 -27 -31 -38 l-28 -21 -27 21 c-16 11 -29 30 -31 42 -7 45
55 80 86 49z m-128 -74 c0 -3 -7 -12 -15 -20 -22 -23 -18 -58 10 -84 14 -13
23 -26 20 -29 -6 -5 -85 69 -85 81 0 4 7 5 15 2 10 -4 15 0 15 13 0 10 5 24
12 31 13 13 28 16 28 6z m-117 -121 c-26 -18 -30 -55 -8 -73 18 -15 65 -5 65
15 0 7 5 17 10 20 18 11 10 -25 -10 -45 -55 -55 -136 24 -83 82 9 10 23 18 32
17 12 0 10 -4 -6 -16z"/>
<path d="M1738 1409 c-25 -14 -22 -46 6 -64 45 -30 78 7 45 49 -23 29 -26 30
-51 15z"/>
<path d="M1572 1178 c-14 -14 -16 -44 -2 -53 12 -7 44 41 35 55 -8 13 -18 13
-33 -2z"/>
<path d="M1442 1108 c-14 -14 -16 -48 -4 -48 15 0 44 38 37 49 -8 14 -18 14
-33 -1z"/>
<path d="M875 756 c-40 -17 -87 -67 -102 -108 -46 -127 67 -265 201 -244 132
21 198 172 123 285 -46 69 -147 100 -222 67z"/>
</g>
</svg>
